<svg xmlns="http://www.w3.org/2000/svg" width="33" height="18" viewBox="0 0 33 18">
    <defs>
        <filter id="0j0z0q2lia">
            <feColorMatrix in="SourceGraphic" values="0 0 0 0 1.000000 0 0 0 0 1.000000 0 0 0 0 1.000000 0 0 0 1.000000 0"/>
        </filter>
    </defs>
    <g fill="none" fill-rule="evenodd">
        <g>
            <g filter="url(#0j0z0q2lia)" transform="translate(-256 -558) translate(50 532)">
                <g>
                    <path fill="#CE0000" fill-rule="nonzero" d="M24.24 0c1.71 0 3.416.723 4.746 1.381L30.26.348h1.129v5.25h-1.104c-1.368-2.201-2.447-3.974-6.215-3.974-2.84 0-3.77 1.266-3.77 2.181 0 1.74 2.655 2.374 6.192 2.86 4.258.6 6.509 2.99 6.509 5.478 0 3.102-2.454 5.707-7.245 5.707-2.053 0-5.106-.193-7.204-3 0 1.046-1.028 3-3.344 3-1.101 0-2.395-.15-3.35-1.418-.287-.474-.545-.999-.781-1.548-2.469 2.385-3.58 2.966-6.049 2.966C1.826 17.85 0 16.217 0 13.603c0-3.59 3.55-5.267 10.943-6.58V5.04c0-1.832-.768-3.472-3.035-3.472-1.534 0-2.763.6-2.763 1.193 0 .418.752.867.752 2.087 0 1.29-.69 2.12-2.291 2.12-1.668 0-2.525-1.08-2.525-2.508C1.08 2.014 4.694.001 8.457.001c2.768 0 4.85.896 5.657 1.912.89 1.12 1.28 1.94 1.28 3.718v8.164c.005.628.062 1.285.68 1.285.671 0 .65-.688.656-.964v-2.58h1.604c1.067 2.57 3.704 4.92 7.307 4.735 4.255-.22 4.202-2.268 3.958-3.112-.328-1.126-2.05-1.43-4.712-1.83-5.21-.771-7.687-2.88-7.687-5.682C17.2 2.758 19.486 0 24.24 0zM10.91 8.585c-4.14.65-5.892 1.871-5.892 4.404 0 1.483.87 2.424 2.251 2.424 2.034 0 3.641-1.296 3.641-4.73z" transform="translate(206 26)"/>
                </g>
            </g>
        </g>
    </g>
</svg>
