<svg xmlns="http://www.w3.org/2000/svg" width="166" height="60">
  <g fill="#FFA000">
    <path d="M42.8 21.4h6l.8 12 5.9-12h6l-3.5 17H54L57 24.9H57l-6.7 13.5H47l-1-13.5-2.5 13.5h-4.2l3.6-17zm21.5 11.8v.8c0 1.3.8 2 2.1 2 1.4 0 2-.6 2.4-1.4h4c-1 3-3.5 4-6.5 4-3.4 0-6-1.7-6-5.2 0-4.4 3-7.7 7.4-7.7 3.2 0 5.6 1.8 5.6 5.4l-.1 2h-8.9zm5.1-2.3c.1-1.4-.5-2.5-1.9-2.5-1.6 0-2.5 1-3 2.5h5zm6.4-4.9h3.9l-.4 2a4.5 4.5 0 0 1 3.9-2.3c.5 0 .9 0 1.3.2l-.8 3.6c-.5-.2-1-.3-1.8-.3-2.2 0-3 1.4-3.5 3.5l-1.2 5.7h-4L75.8 26zm8.9 0h4l-2.5 12.3h-4L84.7 26zm4.4-1.5H85l.7-3.1h4l-.7 3zm3.5 8.2c0 1.8 1 2.4 3.1 2.4 1.8 0 2.5-.8 2.5-1.7 0-1.7-2.5-1.9-4.3-2.5-2-.8-3.8-1.9-3.8-4.4 0-3.8 3.5-5.5 7-5.5s6.6 1.4 6.4 5.5h-4.4c0-.6-.2-1-.6-1.4a3 3 0 0 0-1.8-.4c-1 0-2.2.4-2.2 1.5 0 1 .7 1.1 3.1 1.8 2.3.6 5 1.8 5 5.1 0 3-2.6 5.6-7.6 5.6-4 0-6.9-2-6.8-6h4.4zM110 26h2.5l-.6 2.7h-2.5l-1 4.6a7 7 0 0 0-.3 1.5c0 .6.6.6 1.3.6h1.3l-.6 3h-2.4c-1.9 0-3.8-.2-3.8-2 0-1 .1-1.9.4-3.3l1-4.4h-2l.5-2.7h2l.8-3.7h4L110 26z"/>
    <path d="M112.3 29.8c.6-3.2 3-4.1 6-4.1 3.4 0 5.6.8 5.6 3.2 0 1.6-1 5-1.2 6.2a9 9 0 0 0-.4 2.3c0 .3 0 .6.2 1h-4v-1.2h-.1c-.8 1-2 1.5-3.7 1.5-2.3 0-4-1-4-3.5 0-3.3 2.9-3.9 6-4.2 1.4 0 3.4 0 3.4-1.5 0-.8-.6-1.2-1.8-1.2-1.3 0-2 .4-2.2 1.5h-3.8zm4 6.4c2.5 0 3-2.4 3.1-3.5-1 .8-4.7-.1-4.7 2.2 0 1 .8 1.3 1.7 1.3zM130.9 26h2.6l-.6 2.7h-2.5l-1 4.6a7 7 0 0 0-.2 1.5c0 .6.6.6 1.3.6h1.2l-.6 3h-2.3c-2 0-3.9-.2-3.9-2 0-1 .2-1.9.5-3.3l1-4.4h-2.1l.6-2.7h2l.8-3.7h4l-.8 3.7zm3.3 0h4l-2.5 12.4h-4L134 26zm4.4-1.5h-4l.6-3.1h4l-.6 3v.1zm6.7 1.2c3.3 0 5.8 1.9 5.8 5.4 0 4.4-2.8 7.6-7.2 7.6-3.5 0-6-1.8-6-5.3 0-4.4 3-7.7 7.4-7.7zm-1.4 10c2.3 0 3.2-2.5 3.2-4.4 0-1.6-.6-2.6-2-2.6-2.3 0-3.1 2.8-3.1 4.5 0 1.4.5 2.5 2 2.5zm9.5-9.7h4l-.3 1.5c.6-.8 2-1.8 4.3-1.8 2.2 0 3.5 1.3 3.5 3.4 0 .9-.3 2-.4 2.7l-1.5 6.6h-4l1.3-6.6.3-1.5c0-1-.6-1.5-1.5-1.5-2.5 0-2.8 2.3-3.2 4.3l-1 5.3h-4l2.5-12.4z"/>
  </g>
  <path d="M15.7 15.8a14 14 0 1 1 0 28.2 14 14 0 0 1 0-28.2z"/>
  <path fill="#FFA000" d="M.8 29.9a14.8 14.8 0 1 1 29.7 0 14.8 14.8 0 0 1-29.7 0zm8.1-3.6l5-1.8c1.9-.3 2.8 2.3 1.4 3.3-.3.3-1.4.6-1.4.6 1.5 1 3 2.2 4.4 3.4.5.5.4.7.4 1l-.1 3.1c0 .6-.2 1 .6 1.6.2.2.7.4 1.6.3 3.5-.4 7.3-3.6 6.3-7.3-.2-.8-.5-1.5-1-2.1-.3-.7-.4-.8-.6-1L23 29.5c-1.2 1-2.3-.9-2.4-1.5-.8 0-2.1-.7-2.1-2-.5 0-2.7-.9-2.3-2.5-.8 0-2.6-1.4-1.7-2.6l1-1.2a9.7 9.7 0 0 0-3.9-.9c-3.8 0-5.9 4.7-5.2 8.1.1 1 .5 1.3.7 1.5.8.5 1 .5 1.5.4l.4-2.5zm-4 8.3a10 10 0 0 0 2.6 3.8 10 10 0 0 0 4.5 2.7l3.2-5.3 1.1-.3c.6-.1 1 0 1.6 0v-2.2c.1-.8.2-.7-.3-1.2-.7-.7-2.6-2-5.2-3.8l2.3-.8c1-.3.7-2.6-.7-2.3L9.6 27l-1 5.7-3.6 2zM24.5 24c.3-.7-1.2-2.2-1.8-1.8l-3.5 3.5c-.4.7 1 2.1 1.6 1.7l3.7-3.4zm.8 2.8c.3-.3-.6-2.2-1-1.9-.4.3-3.2 2.9-3.1 3 0 .4.9 1.7 1.6 1.1l2.5-2.2zm-4.5-7.4l-4 4.2c-.5.9 1.4 2 2 1.8l4-4c.5-.7-1.3-2.3-2-2zm-3-1L15 21c-.6.8 1 1.8 1.5 1.8l3.2-3.4c.5-.6-1.8-1.6-2.1-1.2zm2 14.5a1.4 1.4 0 1 1 2.7.2 1.4 1.4 0 0 1-2.7-.2zm3.3-.6c0-.8.7-1.4 1.5-1.3.8 0 1.4.7 1.3 1.5a1.4 1.4 0 0 1-2.8-.2zM9.2 23.3c.1.6.6 1 1.1 1 .1.2 0 .4-.2.5l-1 .3c-.4.2-.5 0-.5-.3l.2-1.1c0-.3.2-.4.4-.4zm.6-1.7c.2 0 .3.2.3.3-.6.1-1 .6-1 1.2-.2.1-.3 0-.4-.2l-.4-1c-.1-.4 0-.6.3-.5l1.2.2zm1.7 1.2c-.1-.5-.6-.9-1.1-.9-.2-.2-.1-.4.1-.5l1.1-.4c.3 0 .5 0 .5.4l-.3 1.1c0 .3-.1.4-.3.3zm-1 1.4c.6 0 1-.5 1-1 .2-.2.4-.1.5 0l.4 1.2c.1.3 0 .5-.4.4l-1.1-.2c-.3 0-.3-.2-.3-.4z"/>
</svg>
